<?xml version="1.0" encoding="UTF-8"?>
<svg width="136px" height="34px" viewBox="0 0 136 34" version="1.1" xmlns="http://www.w3.org/2000/svg" xmlns:xlink="http://www.w3.org/1999/xlink">
    <!-- Generator: Sketch 55.2 (78181) - https://sketchapp.com -->
    <title>Combined Shape</title>
    <desc>Created with Sketch.</desc>
    <g id="Page-1" stroke="none" stroke-width="1" fill="none" fill-rule="evenodd">
        <g id="Prospa" transform="translate(-130.000000, -53.000000)" fill="#FFFFFF">
            <g id="Menu" transform="translate(130.000000, 39.000000)">
                <g id="Combined-Shape">
                    <path d="M41.8259515,32.4357164 C44.3652261,32.4357164 45.9487063,30.4738227 45.9487063,28.0329056 C45.9487063,25.5919885 44.3652261,23.629344 41.8259515,23.629344 C39.3850345,23.629344 37.7197148,25.5093983 37.7197148,28.0329056 C37.7197148,30.5556621 39.3850345,32.4357164 41.8259515,32.4357164 Z M42.6173162,19.6222156 C47.0373959,19.6222156 50.368786,23.2336617 50.368786,28.0329056 C50.368786,32.8313987 47.0373959,36.4435956 42.6338343,36.4435956 C40.4902421,36.4435956 38.9728341,35.6026768 37.9336986,34.3653248 L37.9336986,42.0492207 L33.6457634,42.0499715 L33.6457634,20.050934 L37.8511084,20.050934 L37.8511084,21.8146111 C38.8902438,20.5126886 40.4241699,19.6222156 42.6173162,19.6222156 Z M57.2316597,21.7988439 C58.2377591,20.2979539 59.7716851,19.6222156 61.7343296,19.6222156 C62.6578387,19.6222156 63.3831312,19.7536092 63.9770301,19.9683438 L63.3335771,24.239761 C62.6248026,23.9259181 61.6021852,23.7284523 60.7282303,23.7284523 C58.7325497,23.7284523 57.3638041,24.9485354 57.3638041,27.3233803 L57.3638041,36.0313952 L53.0593508,36.0313952 L53.0593508,20.050934 L57.2316597,20.050934 L57.2316597,21.7988439 Z M73.1814875,32.4357164 C75.6058865,32.4357164 77.4363866,30.6217343 77.4363866,28.0329056 C77.4363866,25.4433261 75.6058865,23.629344 73.1814875,23.629344 C70.7570884,23.629344 68.9423556,25.4433261 68.9423556,28.0329056 C68.9423556,30.6217343 70.7570884,32.4357164 73.1814875,32.4357164 Z M73.1814875,19.6222156 C78.1616791,19.6222156 81.8391974,23.2171436 81.8391974,28.0329056 C81.8391974,32.8486676 78.1616791,36.4435956 73.1814875,36.4435956 C68.2170631,36.4435956 64.5560628,32.8486676 64.5560628,28.0329056 C64.5560628,23.2171436 68.2170631,19.6222156 73.1814875,19.6222156 Z M92.3472291,26.2348409 C95.8100128,26.7626677 97.740372,28.3131118 97.740372,31.0175668 C97.740372,34.3166716 95.0351661,36.4437458 90.4011027,36.4437458 C88.2244744,36.4437458 85.3713569,36.0315454 83.2923352,34.5636915 L84.9914418,31.2983737 C86.3601873,32.2046139 88.0262578,32.864585 90.4341388,32.864585 C92.4290685,32.864585 93.3863645,32.304473 93.3863645,31.3644459 C93.3863645,30.5888484 92.5784818,30.1601299 90.7307128,29.896592 L89.4280394,29.7148935 C85.7332523,29.2035848 83.903503,27.5878193 83.903503,24.8660954 C83.903503,21.5842594 86.4427776,19.638133 90.6481226,19.638133 C93.204666,19.638133 95.2003466,20.1164056 97.3281716,21.155541 L95.876085,24.5034491 C94.6064477,23.8765141 92.5784818,23.216543 90.780267,23.2007757 C89.1472326,23.2007757 88.3228318,23.7781566 88.3228318,24.6521116 C88.3228318,25.5748698 89.4775936,25.8061225 90.9281786,26.0208571 L92.3472291,26.2348409 Z M108.494222,32.4357164 C111.034248,32.4357164 112.616977,30.4738227 112.616977,28.0329056 C112.616977,25.5919885 111.034248,23.629344 108.494222,23.629344 C106.053305,23.629344 104.387986,25.5093983 104.387986,28.0329056 C104.387986,30.5556621 106.053305,32.4357164 108.494222,32.4357164 Z M109.286338,19.6222156 C113.705667,19.6222156 117.037057,23.2336617 117.037057,28.0329056 C117.037057,32.8313987 113.705667,36.4435956 109.302105,36.4435956 C107.158513,36.4435956 105.641105,35.6026768 104.601969,34.3653248 L104.601969,42.0492207 L100.314034,42.0492207 L100.314034,20.050934 L104.519379,20.050934 L104.519379,21.8146111 C105.558515,20.5126886 107.092441,19.6222156 109.286338,19.6222156 Z M127.264056,32.4357164 C129.721491,32.4357164 131.387562,30.5556621 131.387562,28.0329056 C131.387562,25.5093983 129.721491,23.629344 127.264056,23.629344 C124.742051,23.629344 123.142052,25.5919885 123.142052,28.0329056 C123.142052,30.4738227 124.742051,32.4357164 127.264056,32.4357164 Z M131.255418,20.050934 L135.461513,20.050934 L135.461513,36.0313952 L131.255418,36.0313952 L131.255418,34.2662165 C130.217033,35.5531227 128.666589,36.4435956 126.472692,36.4435956 C122.069881,36.4435956 118.738491,32.8313987 118.738491,28.0329056 C118.738491,23.2336617 122.069881,19.6222156 126.472692,19.6222156 C128.666589,19.6222156 130.199764,20.5126886 131.255418,21.8146111 L131.255418,20.050934 Z M16.2357401,36.1370357 C19.8877305,35.1376937 22.5463855,31.7499921 22.4247526,27.7601326 C22.2918574,23.4113809 18.7096933,19.7931774 14.3631941,19.6182362 C9.56470097,19.4260262 5.60562504,23.260466 5.60562504,28.0229197 L5.60562504,39.358806 C5.60562504,40.8394238 6.80618685,42.0392348 8.28680466,42.0392348 C9.9010685,42.0392348 11.2112501,40.729804 11.2112501,39.1147893 C11.2112501,37.6964896 12.5244349,36.4343605 13.9877839,36.4343605 C13.9975446,36.4343605 15.5292182,36.3284949 16.2357401,36.1370357 Z M12.7466778,14.0561588 C21.0627644,13.3233581 28.0401383,19.8584988 28.0401383,28.0229197 C28.0401383,34.9417296 23.0163991,40.6990204 16.4136846,41.8350116 C16.4084288,41.8395165 16.4046747,41.8432706 16.399419,41.8470248 C15.596792,44.3277353 13.6649311,46.3016421 11.2112501,47.1688397 C10.3395476,47.4796793 9.39576638,47.6448598 8.41219167,47.6448598 C7.42786613,47.6448598 6.4840849,47.4796793 5.60562504,47.1628331 C3.21576374,46.3181602 1.32820127,44.4298469 0.482777512,42.0392348 C0.17193787,41.1607749 -1.52766688e-13,40.2177445 -1.52766688e-13,39.233419 L-1.52766688e-13,28.3322577 C-1.52766688e-13,21.0252737 5.46672327,14.6966086 12.7466778,14.0561588 Z M14.0169908,25.2237862 C15.5681857,25.2237862 16.8228066,26.4784071 16.8228066,28.029602 C16.8228066,29.5815478 15.5681857,30.8354178 14.0169908,30.8354178 L11.211175,30.8354178 L11.211175,28.029602 C11.211175,26.4784071 12.4657959,25.2237862 14.0169908,25.2237862 Z"></path>
                </g>
            </g>
        </g>
    </g>
</svg>