<?xml version="1.0" encoding="utf-8"?>
<!-- Generator: Adobe Illustrator 23.0.2, SVG Export Plug-In . SVG Version: 6.00 Build 0)  -->
<svg version="1.1" id="Layer_1" xmlns="http://www.w3.org/2000/svg" xmlns:xlink="http://www.w3.org/1999/xlink" x="0px" y="0px"
	 viewBox="0 0 136 34" style="enable-background:new 0 0 136 34;" xml:space="preserve">
<style type="text/css">
	.st0{fill-rule:evenodd;clip-rule:evenodd;fill:#260350;}
</style>
<g id="Page-1">
	<g id="Prospa" transform="translate(-130.000000, -53.000000)">
		<g id="Menu" transform="translate(130.000000, 39.000000)">
			<g id="Combined-Shape">
				<path class="st0" d="M41.8,32.4c2.5,0,4.1-2,4.1-4.4s-1.6-4.4-4.1-4.4c-2.4,0-4.1,1.9-4.1,4.4C37.7,30.6,39.4,32.4,41.8,32.4z
					 M42.6,19.6c4.4,0,7.8,3.6,7.8,8.4c0,4.8-3.3,8.4-7.7,8.4c-2.1,0-3.7-0.8-4.7-2.1V42l-4.3,0v-22h4.2v1.8
					C38.9,20.5,40.4,19.6,42.6,19.6z M57.2,21.8c1-1.5,2.5-2.2,4.5-2.2c0.9,0,1.6,0.1,2.2,0.3l-0.6,4.3c-0.7-0.3-1.7-0.5-2.6-0.5
					c-2,0-3.4,1.2-3.4,3.6V36h-4.3v-16h4.2V21.8z M73.2,32.4c2.4,0,4.3-1.8,4.3-4.4c0-2.6-1.8-4.4-4.3-4.4s-4.2,1.8-4.2,4.4
					C68.9,30.6,70.8,32.4,73.2,32.4z M73.2,19.6c5,0,8.7,3.6,8.7,8.4s-3.7,8.4-8.7,8.4c-5,0-8.6-3.6-8.6-8.4S68.2,19.6,73.2,19.6z
					 M92.3,26.2c3.5,0.5,5.4,2.1,5.4,4.8c0,3.3-2.7,5.4-7.3,5.4c-2.2,0-5-0.4-7.1-1.9l1.7-3.3c1.4,0.9,3,1.6,5.4,1.6
					c2,0,3-0.6,3-1.5c0-0.8-0.8-1.2-2.7-1.5l-1.3-0.2c-3.7-0.5-5.5-2.1-5.5-4.8c0-3.3,2.5-5.2,6.7-5.2c2.6,0,4.6,0.5,6.7,1.5
					l-1.5,3.3c-1.3-0.6-3.3-1.3-5.1-1.3c-1.6,0-2.5,0.6-2.5,1.5c0,0.9,1.2,1.2,2.6,1.4L92.3,26.2z M108.5,32.4c2.5,0,4.1-2,4.1-4.4
					s-1.6-4.4-4.1-4.4c-2.4,0-4.1,1.9-4.1,4.4C104.4,30.6,106.1,32.4,108.5,32.4z M109.3,19.6c4.4,0,7.8,3.6,7.8,8.4
					c0,4.8-3.3,8.4-7.7,8.4c-2.1,0-3.7-0.8-4.7-2.1V42h-4.3v-22h4.2v1.8C105.6,20.5,107.1,19.6,109.3,19.6z M127.3,32.4
					c2.5,0,4.1-1.9,4.1-4.4c0-2.5-1.7-4.4-4.1-4.4c-2.5,0-4.1,2-4.1,4.4S124.7,32.4,127.3,32.4z M131.3,20.1h4.2v16h-4.2v-1.8
					c-1,1.3-2.6,2.2-4.8,2.2c-4.4,0-7.7-3.6-7.7-8.4c0-4.8,3.3-8.4,7.7-8.4c2.2,0,3.7,0.9,4.8,2.2V20.1z M16.2,36.1
					c3.7-1,6.3-4.4,6.2-8.4c-0.1-4.3-3.7-8-8.1-8.1c-4.8-0.2-8.8,3.6-8.8,8.4v11.3c0,1.5,1.2,2.7,2.7,2.7c1.6,0,2.9-1.3,2.9-2.9
					c0-1.4,1.3-2.7,2.8-2.7C14,36.4,15.5,36.3,16.2,36.1z M12.7,14.1C21.1,13.3,28,19.9,28,28c0,6.9-5,12.7-11.6,13.8c0,0,0,0,0,0
					c-0.8,2.5-2.7,4.5-5.2,5.3c-0.9,0.3-1.8,0.5-2.8,0.5c-1,0-1.9-0.2-2.8-0.5c-2.4-0.8-4.3-2.7-5.1-5.1C0.2,41.2,0,40.2,0,39.2
					V28.3C0,21,5.5,14.7,12.7,14.1z M14,25.2c1.6,0,2.8,1.3,2.8,2.8c0,1.6-1.3,2.8-2.8,2.8h-2.8V28C11.2,26.5,12.5,25.2,14,25.2z"/>
			</g>
		</g>
	</g>
</g>
</svg>
